<svg xmlns="http://www.w3.org/2000/svg" xmlns:xlink="http://www.w3.org/1999/xlink" viewBox="0 0 810.45 87.77"><defs><style>.e3e82aac-aa12-4b64-8013-14cb4d80b82e{fill:none;}.b60a2a0b-089f-4e81-bfa4-a7a12b5e5c4a{isolation:isolate;}.a041db70-3009-4b45-bb62-915b52cc4d9f{fill:#342f2b;}.f604a9a4-b5e6-4118-9002-f7ef3a9617a8{fill:#b9d0d0;}.b7f7dfc8-9aeb-4e88-a46c-204e883639e2{fill:#1f1b17;}.e7b67864-d76e-4c18-9b2f-6e0fe55cba12{fill:#fff;}.b9eb967a-125d-4c80-822b-3e71068f9558{fill:#9cadb7;}.ee93a5db-3064-4eb9-b2fa-6e01f6ae802a{clip-path:url(#b393c875-53f9-4898-999a-6d20f75eb366);}.b60733c8-d165-4222-ba7c-3c0c30bc4094{opacity:0.47;mix-blend-mode:screen;}.e491f830-7c70-475e-b7ce-0352ce4469f4{fill:url(#f1c9103e-e590-43ad-b5b9-4e29f976665f);}.abb0f361-9d3b-4206-9f4b-c7e3118abb12{fill:url(#aa457a42-70c8-4bf0-bf35-dba7cdd0ce7b);}.f4286194-606b-41af-9ba8-cd01f0acdbb2{clip-path:url(#ab6d1b62-4429-4244-9b53-9174041a1585);}.e18c18f2-389c-43a9-9490-560747bdfab1{fill:url(#b13679ed-5498-42fa-9a3e-dad1cd711d70);}.e3b96ebf-b805-4658-98a5-3371ff72ff9a{fill:url(#ee4fb928-8310-4c2c-95b7-08bedd8b460f);}.b1c89d2e-c82c-4a97-8966-cb3b2f9a86d7{fill:#e8b96e;}.b2607718-fe9e-46d5-8f8b-f39c4d01bc2e{fill:#77a052;}.a4224f65-aa4f-4eeb-b0d4-e6478498e4ee{fill:#ba985f;}.a075638d-dde2-4771-acf4-833e38e12226{fill:#788f4f;}.a81fa8bc-ebf8-472d-8f05-4782d5ac96ac{fill:#dea65e;}.f00976bd-619c-4d50-acc1-2f3fd3e0ea52{fill:#50b081;}.a3da0ab7-027c-422b-8444-8d03ef3255c7{fill:#bc9e52;}.ea571e03-6aa5-4023-8ad5-78a9c33b7879{fill:#559f7a;}.a710ade6-ba9c-4984-a22c-48218a56cf88{fill:#876664;}.b7252c2b-bcd5-4552-93b2-23f2ea63329f{fill:#99a955;}.ac0bf7c3-b027-440d-ad5d-fa1fb5f5e385{fill:#5b5d4e;}.e2b636ba-5484-4b77-bec3-4788303b0183{fill:#7d9d58;}.a344fac4-6607-4711-804a-ec8775e68de5{fill:#c64d57;}.a0d651f1-ec60-459e-9174-54018c3fc6d0{fill:#982d50;}.e7248e40-76d6-4e6d-aa3b-58118b2e4546{fill:#cb6f4c;}.bce0138d-5e28-4c62-bf3d-ea3ddb7aad74{fill:#2d5299;}.a2371080-c164-445c-a482-bad12eaa7786{fill:#627974;}.a67ee686-4b61-4230-ad50-aca196bd6b1e{fill:#2b2522;}.b96cc5f2-1c6b-4e7d-b446-7638edddbe63{fill:#ffd337;}.b5d10ea0-b168-4166-9356-eb4d7fb647dd{fill:#241a16;}.f4995ea6-05ea-49ef-bd11-92d9cca78d90{fill:#87888b;}</style><clipPath id="b393c875-53f9-4898-999a-6d20f75eb366"><path class="e3e82aac-aa12-4b64-8013-14cb4d80b82e" d="M20.45,34.48V43.8H28V32.6C25.43,33.14,22.92,33.76,20.45,34.48Z"/></clipPath><linearGradient id="f1c9103e-e590-43ad-b5b9-4e29f976665f" x1="28.63" y1="37.12" x2="36.76" y2="41.54" gradientUnits="userSpaceOnUse"><stop offset="0" stop-color="#fff"/><stop offset="1" stop-color="#cfedfc"/></linearGradient><linearGradient id="aa457a42-70c8-4bf0-bf35-dba7cdd0ce7b" x1="31.93" y1="33.61" x2="40.05" y2="38.03" xlink:href="#f1c9103e-e590-43ad-b5b9-4e29f976665f"/><clipPath id="ab6d1b62-4429-4244-9b53-9174041a1585"><path class="e3e82aac-aa12-4b64-8013-14cb4d80b82e" d="M49.62,30.37A105.88,105.88,0,0,0,32,31.84v12H67.21v-12A105.79,105.79,0,0,0,49.62,30.37Z"/></clipPath><linearGradient id="b13679ed-5498-42fa-9a3e-dad1cd711d70" x1="57.08" y1="6.33" x2="75.57" y2="23.5" gradientUnits="userSpaceOnUse"><stop offset="0" stop-color="#f99f36"/><stop offset="1" stop-color="#f5842f"/></linearGradient><linearGradient id="ee4fb928-8310-4c2c-95b7-08bedd8b460f" x1="62.36" y1="0.64" x2="80.86" y2="17.81" xlink:href="#b13679ed-5498-42fa-9a3e-dad1cd711d70"/></defs><g class="b60a2a0b-089f-4e81-bfa4-a7a12b5e5c4a"><g id="b2b16d35-5c7c-4560-a997-10f1273b30c2" data-name="Layer 2"><g id="ad47c771-86be-4a12-8680-1954145f86a2" data-name="date"><path class="a041db70-3009-4b45-bb62-915b52cc4d9f" d="M90.18,19.43,84.27,2.8A4,4,0,0,0,80.53.16H76a4,4,0,0,0-3.67,2.49A4,4,0,0,0,70.28.88,13.22,13.22,0,0,0,67.61.2,19.9,19.9,0,0,0,64.69,0a15.17,15.17,0,0,0-3.44.38,10.73,10.73,0,0,0-3.4,1.42,8.5,8.5,0,0,0-2.7,2.86,8.3,8.3,0,0,0-1.06,4.18,8.3,8.3,0,0,0,1.35,4.6,4,4,0,0,0-1.28,2.92V20a4,4,0,0,0,2.2,3.55,12.17,12.17,0,0,0,3.22,1,19.27,19.27,0,0,0,3.36.29,16.71,16.71,0,0,0,3.38-.33,12.77,12.77,0,0,0,1.25-.34,3.91,3.91,0,0,0,2.31.75H74a4,4,0,0,0,3.78-2.77l.31-1h.21l.32,1A4,4,0,0,0,82.4,25h4.15a4,4,0,0,0,4-4A3.82,3.82,0,0,0,90.18,19.43Z"/><path class="f604a9a4-b5e6-4118-9002-f7ef3a9617a8" d="M113.15,40.27c1.81-1,1.61-1.78-.45-1.78H56.11a17.57,17.57,0,0,0-7,1.78l-10.9,5.9c-1.81,1-1.6,1.78.46,1.78H95.22a17.52,17.52,0,0,0,7-1.78Z"/><path class="b7f7dfc8-9aeb-4e88-a46c-204e883639e2" d="M97.37,5.16H90.84A1.87,1.87,0,0,0,89,7v8.55H10.28V7A1.88,1.88,0,0,0,8.4,5.16H1.87A1.87,1.87,0,0,0,0,7V47.59H99.24V7A1.87,1.87,0,0,0,97.37,5.16Z"/><path class="a041db70-3009-4b45-bb62-915b52cc4d9f" d="M96.6,47.59h2.64V7a1.87,1.87,0,0,0-1.87-1.87H90.84A1.87,1.87,0,0,0,89,7v8.55H49.83v32H96.6Z"/><path class="e7b67864-d76e-4c18-9b2f-6e0fe55cba12" d="M90.67,35.32A110.15,110.15,0,0,0,49.62,27.6a110.22,110.22,0,0,0-41,7.72L7.05,31.51a114.33,114.33,0,0,1,42.57-8,114.33,114.33,0,0,1,42.57,8Z"/><path class="b9eb967a-125d-4c80-822b-3e71068f9558" d="M71.26,32.6V43.8h7.53V34.48C76.33,33.76,73.81,33.14,71.26,32.6Z"/><path class="b9eb967a-125d-4c80-822b-3e71068f9558" d="M20.45,34.48V43.8H28V32.6C25.43,33.14,22.92,33.76,20.45,34.48Z"/><path class="b9eb967a-125d-4c80-822b-3e71068f9558" d="M82.85,35.74V43.8h7.22V38.48Q86.55,37,82.85,35.74Z"/><path class="b9eb967a-125d-4c80-822b-3e71068f9558" d="M9.17,38.48V43.8H16.4V35.74Q12.71,37,9.17,38.48Z"/><path class="b9eb967a-125d-4c80-822b-3e71068f9558" d="M49.62,30.37A105.88,105.88,0,0,0,32,31.84v12H67.21v-12A105.79,105.79,0,0,0,49.62,30.37Z"/><g class="ee93a5db-3064-4eb9-b2fa-6e01f6ae802a"><g class="b60733c8-d165-4222-ba7c-3c0c30bc4094"><polygon class="e491f830-7c70-475e-b7ce-0352ce4469f4" points="30.4 30.31 21.98 44.14 27.26 44.14 35.68 30.31 30.4 30.31"/><polygon class="abb0f361-9d3b-4206-9f4b-c7e3118abb12" points="40.14 30.31 31.73 44.14 37.01 44.14 45.42 30.31 40.14 30.31"/></g></g><g class="f4286194-606b-41af-9ba8-cd01f0acdbb2"><g class="b60733c8-d165-4222-ba7c-3c0c30bc4094"><polygon class="e491f830-7c70-475e-b7ce-0352ce4469f4" points="30.4 30.31 21.98 44.14 27.26 44.14 35.68 30.31 30.4 30.31"/><polygon class="abb0f361-9d3b-4206-9f4b-c7e3118abb12" points="40.14 30.31 31.73 44.14 37.01 44.14 45.42 30.31 40.14 30.31"/></g></g><path class="e18c18f2-389c-43a9-9490-560747bdfab1" d="M58.13,20V16.36A7.43,7.43,0,0,0,62.79,18,5.83,5.83,0,0,0,64,17.91a3,3,0,0,0,.9-.36,1.55,1.55,0,0,0,.53-.52,1.25,1.25,0,0,0,.17-.66,1.39,1.39,0,0,0-.28-.86,3.11,3.11,0,0,0-.77-.7,8.24,8.24,0,0,0-1.16-.61c-.45-.2-.93-.4-1.45-.61a7.56,7.56,0,0,1-2.95-2,4.23,4.23,0,0,1-1-2.79,4.37,4.37,0,0,1,.53-2.2A4.45,4.45,0,0,1,60,5.12a6.63,6.63,0,0,1,2.12-.88A11.52,11.52,0,0,1,64.7,4,14.78,14.78,0,0,1,67,4.12a9.4,9.4,0,0,1,1.88.47V8A6.35,6.35,0,0,0,68,7.51a9,9,0,0,0-1-.36,9.75,9.75,0,0,0-1-.21,7,7,0,0,0-1-.07A5.26,5.26,0,0,0,63.73,7a2.87,2.87,0,0,0-.9.34,1.66,1.66,0,0,0-.56.52,1.16,1.16,0,0,0-.2.68,1.29,1.29,0,0,0,.22.74,2.53,2.53,0,0,0,.64.62,7.41,7.41,0,0,0,1,.57c.39.19.83.38,1.33.58a14.72,14.72,0,0,1,1.82.87A6.78,6.78,0,0,1,68.46,13a3.91,3.91,0,0,1,.88,1.33A4.67,4.67,0,0,1,69.65,16a4.56,4.56,0,0,1-.54,2.31,4.28,4.28,0,0,1-1.45,1.51,6.53,6.53,0,0,1-2.13.83,12.72,12.72,0,0,1-2.59.25,15,15,0,0,1-2.64-.23A7.91,7.91,0,0,1,58.13,20Z"/><path class="e3b96ebf-b805-4658-98a5-3371ff72ff9a" d="M86.54,21H82.4l-1.2-3.75h-6L74,21H69.88L76,4.12h4.51Zm-6.21-6.67L78.51,8.66a8,8,0,0,1-.28-1.52h-.1a5.89,5.89,0,0,1-.29,1.47L76,14.34Z"/><polygon class="b1c89d2e-c82c-4a97-8966-cb3b2f9a86d7" points="151.38 46.93 153.88 36.69 154.81 41.16 156.84 39.64 157.7 40.81 155.13 42.86 155.93 47.03 151.38 46.93"/><path class="b2607718-fe9e-46d5-8f8b-f39c4d01bc2e" d="M159.45,33c-.09,3.85-2.61,6.91-5.64,6.84s-5.41-3.23-5.33-7.08,2.61-6.91,5.64-6.84S159.53,29.2,159.45,33Z"/><polygon class="a4224f65-aa4f-4eeb-b0d4-e6478498e4ee" points="154.74 40.83 152.84 40.79 153.88 36.59 154.74 40.83"/><path class="a075638d-dde2-4771-acf4-833e38e12226" d="M153.81,39.88c-2.9-.06-5.19-3-5.3-6.61,3.86.18,3.87,3,7.86,3.09a5.46,5.46,0,0,0,2.53-.49C158,38.28,156,39.93,153.81,39.88Z"/><polygon class="a81fa8bc-ebf8-472d-8f05-4782d5ac96ac" points="130.44 46.47 125.89 46.37 128.39 36.33 128.39 36.33 130.44 46.47"/><path class="f00976bd-619c-4d50-acc1-2f3fd3e0ea52" d="M134,32.48c-.09,3.85-2.61,6.91-5.64,6.84s-5.41-3.24-5.32-7.08,2.61-6.91,5.63-6.84S134,28.63,134,32.48Z"/><polygon class="a3da0ab7-027c-422b-8444-8d03ef3255c7" points="129.26 40.27 127.35 40.23 128.4 36.03 129.26 40.27"/><path class="ea571e03-6aa5-4023-8ad5-78a9c33b7879" d="M128.32,39.32a5.42,5.42,0,0,1-4.68-3.69l.23,0c4.06.09,4.12-2.85,8.19-2.76a6.62,6.62,0,0,1,1.83.29C133.53,36.69,131.16,39.39,128.32,39.32Z"/><polygon class="a710ade6-ba9c-4984-a22c-48218a56cf88" points="142.89 46.75 138.34 46.65 140.84 36.6 140.84 36.6 142.89 46.75"/><path class="b7252c2b-bcd5-4552-93b2-23f2ea63329f" d="M146.4,32.75c-.08,3.85-2.6,6.92-5.63,6.85s-5.41-3.24-5.33-7.09,2.61-6.91,5.64-6.84S146.49,28.91,146.4,32.75Z"/><polygon class="ac0bf7c3-b027-440d-ad5d-fa1fb5f5e385" points="141.7 40.55 139.8 40.51 140.85 36.3 141.7 40.55"/><path class="e2b636ba-5484-4b77-bec3-4788303b0183" d="M140.77,39.6c-2.61-.06-4.73-2.43-5.21-5.55,1.21.87,2.17,1.9,4.56,2,3.27.08,4-1.8,6.21-2.5C146,37,143.6,39.66,140.77,39.6Z"/><polygon class="b1c89d2e-c82c-4a97-8966-cb3b2f9a86d7" points="193.38 46.93 195.88 36.69 196.81 41.16 198.84 39.64 199.7 40.81 197.13 42.86 197.93 47.03 193.38 46.93"/><path class="b2607718-fe9e-46d5-8f8b-f39c4d01bc2e" d="M201.45,33c-.09,3.85-2.61,6.91-5.64,6.84s-5.41-3.23-5.33-7.08,2.61-6.91,5.64-6.84S201.53,29.2,201.45,33Z"/><polygon class="a4224f65-aa4f-4eeb-b0d4-e6478498e4ee" points="196.74 40.83 194.84 40.79 195.88 36.59 196.74 40.83"/><path class="a075638d-dde2-4771-acf4-833e38e12226" d="M195.81,39.88c-2.9-.06-5.19-3-5.3-6.61,3.86.18,3.87,3,7.86,3.09a5.46,5.46,0,0,0,2.53-.49C200,38.28,198,39.93,195.81,39.88Z"/><polygon class="a81fa8bc-ebf8-472d-8f05-4782d5ac96ac" points="172.44 46.47 167.9 46.37 170.39 36.33 170.39 36.33 172.44 46.47"/><path class="f00976bd-619c-4d50-acc1-2f3fd3e0ea52" d="M176,32.48c-.09,3.85-2.61,6.91-5.64,6.84s-5.41-3.24-5.32-7.08,2.61-6.91,5.63-6.84S176,28.63,176,32.48Z"/><polygon class="a3da0ab7-027c-422b-8444-8d03ef3255c7" points="171.26 40.27 169.35 40.23 170.4 36.03 171.26 40.27"/><path class="ea571e03-6aa5-4023-8ad5-78a9c33b7879" d="M170.32,39.32a5.42,5.42,0,0,1-4.68-3.69l.23,0c4.06.09,4.12-2.85,8.19-2.76a6.62,6.62,0,0,1,1.83.29C175.53,36.69,173.16,39.39,170.32,39.32Z"/><polygon class="a710ade6-ba9c-4984-a22c-48218a56cf88" points="184.89 46.75 180.34 46.65 182.84 36.6 182.84 36.6 184.89 46.75"/><path class="b7252c2b-bcd5-4552-93b2-23f2ea63329f" d="M188.4,32.75c-.08,3.85-2.6,6.92-5.63,6.85s-5.41-3.24-5.33-7.09,2.61-6.91,5.64-6.84S188.49,28.91,188.4,32.75Z"/><polygon class="ac0bf7c3-b027-440d-ad5d-fa1fb5f5e385" points="183.7 40.55 181.8 40.51 182.85 36.3 183.7 40.55"/><path class="e2b636ba-5484-4b77-bec3-4788303b0183" d="M182.77,39.6c-2.61-.06-4.73-2.43-5.21-5.55,1.21.87,2.17,1.9,4.56,2,3.27.08,4-1.8,6.21-2.5C188,37,185.6,39.66,182.77,39.6Z"/><polygon class="b1c89d2e-c82c-4a97-8966-cb3b2f9a86d7" points="760.38 46.93 762.88 36.69 763.81 41.16 765.84 39.64 766.7 40.81 764.13 42.86 764.93 47.03 760.38 46.93"/><path class="b2607718-fe9e-46d5-8f8b-f39c4d01bc2e" d="M768.45,33c-.09,3.85-2.61,6.91-5.64,6.84s-5.41-3.23-5.33-7.08,2.61-6.91,5.64-6.84S768.53,29.2,768.45,33Z"/><polygon class="a4224f65-aa4f-4eeb-b0d4-e6478498e4ee" points="763.74 40.83 761.84 40.79 762.88 36.59 763.74 40.83"/><path class="a075638d-dde2-4771-acf4-833e38e12226" d="M762.81,39.88c-2.9-.06-5.19-3-5.3-6.61,3.86.18,3.87,3,7.86,3.09a5.46,5.46,0,0,0,2.53-.49C767,38.28,765,39.93,762.81,39.88Z"/><polygon class="a81fa8bc-ebf8-472d-8f05-4782d5ac96ac" points="739.44 46.47 734.89 46.37 737.39 36.33 737.39 36.33 739.44 46.47"/><path class="f00976bd-619c-4d50-acc1-2f3fd3e0ea52" d="M743,32.48c-.09,3.85-2.61,6.91-5.64,6.84s-5.41-3.24-5.32-7.08,2.61-6.91,5.63-6.84S743,28.63,743,32.48Z"/><polygon class="a3da0ab7-027c-422b-8444-8d03ef3255c7" points="738.26 40.27 736.35 40.23 737.4 36.03 738.26 40.27"/><path class="ea571e03-6aa5-4023-8ad5-78a9c33b7879" d="M737.32,39.32a5.42,5.42,0,0,1-4.68-3.69l.23,0c4.06.09,4.12-2.85,8.19-2.76a6.62,6.62,0,0,1,1.83.29C742.53,36.69,740.16,39.39,737.32,39.32Z"/><polygon class="a710ade6-ba9c-4984-a22c-48218a56cf88" points="751.89 46.75 747.34 46.65 749.84 36.6 749.84 36.6 751.89 46.75"/><path class="b7252c2b-bcd5-4552-93b2-23f2ea63329f" d="M755.4,32.75c-.08,3.85-2.6,6.92-5.63,6.85s-5.41-3.24-5.33-7.09,2.61-6.91,5.64-6.84S755.49,28.91,755.4,32.75Z"/><polygon class="ac0bf7c3-b027-440d-ad5d-fa1fb5f5e385" points="750.7 40.55 748.8 40.51 749.85 36.3 750.7 40.55"/><path class="e2b636ba-5484-4b77-bec3-4788303b0183" d="M749.77,39.6c-2.61-.06-4.73-2.43-5.21-5.55,1.21.87,2.17,1.9,4.56,2,3.27.08,4-1.8,6.21-2.5C755,37,752.6,39.66,749.77,39.6Z"/><polygon class="b1c89d2e-c82c-4a97-8966-cb3b2f9a86d7" points="802.38 46.93 804.88 36.69 805.81 41.16 807.84 39.64 808.7 40.81 806.13 42.86 806.93 47.03 802.38 46.93"/><path class="b2607718-fe9e-46d5-8f8b-f39c4d01bc2e" d="M810.45,33c-.09,3.85-2.61,6.91-5.64,6.84s-5.41-3.23-5.33-7.08,2.61-6.91,5.64-6.84S810.53,29.2,810.45,33Z"/><polygon class="a4224f65-aa4f-4eeb-b0d4-e6478498e4ee" points="805.74 40.83 803.84 40.79 804.88 36.59 805.74 40.83"/><path class="a075638d-dde2-4771-acf4-833e38e12226" d="M804.81,39.88c-2.9-.06-5.19-3-5.3-6.61,3.86.18,3.87,3,7.86,3.09a5.46,5.46,0,0,0,2.53-.49C809,38.28,807,39.93,804.81,39.88Z"/><polygon class="a81fa8bc-ebf8-472d-8f05-4782d5ac96ac" points="781.44 46.47 776.89 46.37 779.39 36.33 779.39 36.33 781.44 46.47"/><path class="f00976bd-619c-4d50-acc1-2f3fd3e0ea52" d="M785,32.48c-.09,3.85-2.61,6.91-5.64,6.84s-5.41-3.24-5.32-7.08,2.61-6.91,5.63-6.84S785,28.63,785,32.48Z"/><polygon class="a3da0ab7-027c-422b-8444-8d03ef3255c7" points="780.26 40.27 778.35 40.23 779.4 36.03 780.26 40.27"/><path class="ea571e03-6aa5-4023-8ad5-78a9c33b7879" d="M779.32,39.32a5.42,5.42,0,0,1-4.68-3.69l.23,0c4.06.09,4.12-2.85,8.19-2.76a6.62,6.62,0,0,1,1.83.29C784.53,36.69,782.16,39.39,779.32,39.32Z"/><polygon class="a710ade6-ba9c-4984-a22c-48218a56cf88" points="793.89 46.75 789.34 46.65 791.84 36.6 791.84 36.6 793.89 46.75"/><path class="b7252c2b-bcd5-4552-93b2-23f2ea63329f" d="M797.4,32.75c-.08,3.85-2.6,6.92-5.63,6.85s-5.41-3.24-5.33-7.09,2.61-6.91,5.64-6.84S797.49,28.91,797.4,32.75Z"/><polygon class="ac0bf7c3-b027-440d-ad5d-fa1fb5f5e385" points="792.7 40.55 790.8 40.51 791.85 36.3 792.7 40.55"/><path class="e2b636ba-5484-4b77-bec3-4788303b0183" d="M791.77,39.6c-2.61-.06-4.73-2.43-5.21-5.55,1.21.87,2.17,1.9,4.56,2,3.27.08,4-1.8,6.21-2.5C797,37,794.6,39.66,791.77,39.6Z"/><path class="a344fac4-6607-4711-804a-ec8775e68de5" d="M630.75,35c-18.93-.87-46.52-.47-52.46-.11a12.53,12.53,0,0,0-8.45,4.85c-1.93,2.77-8.05,12.42-8.05,12.42a37.46,37.46,0,0,0-8.1,2.22c-2.59,1.17-3.5,3.82-3.82,10.08-.24,7-.46,10.78,0,11.53s3.21.45,7.65.5l77.9.9c1.74,0,3.8-.7,3.76-4.24s-1.54-30.5-1.85-31.81a37.63,37.63,0,0,1-.62-4c1.16-.56,1.5-1.31-1.29-1.91A32.76,32.76,0,0,0,630.75,35Z"/><path class="a0d651f1-ec60-459e-9174-54018c3fc6d0" d="M636.3,75.48c-6.59.34-77.95-.07-86.63-.5a2.52,2.52,0,0,0,.23,1c.49.75,3.21.45,7.65.5l77.9.9a3.34,3.34,0,0,0,3.42-2C638.13,75.38,637.28,75.43,636.3,75.48Z"/><polygon class="e7b67864-d76e-4c18-9b2f-6e0fe55cba12" points="602.1 37.1 601.93 52.42 618.44 52.61 618.62 37.29 602.1 37.1"/><polygon class="e7b67864-d76e-4c18-9b2f-6e0fe55cba12" points="583.8 36.89 573.8 52.09 596.05 52.35 596.22 37.03 583.8 36.89"/><path class="e7b67864-d76e-4c18-9b2f-6e0fe55cba12" d="M582.06,36.87l-7.19-.08a10.94,10.94,0,0,0-3.94,3.3c-1.64,2.36-6.41,9.85-7.71,11.88l8.84.1Z"/><path class="e7b67864-d76e-4c18-9b2f-6e0fe55cba12" d="M627,37.39l-3.24,0-.18,15.32,3.24,0A3.74,3.74,0,0,0,630.57,49l.09-7.85A3.74,3.74,0,0,0,627,37.39Z"/><path class="e7248e40-76d6-4e6d-aa3b-58118b2e4546" d="M636.92,59.83c0,.78-.4,1-1,.47l-2.52-2.25a1.42,1.42,0,0,1-.11-2l2.25-2.52c.52-.58,1-.42,1,.36Z"/><path class="e7b67864-d76e-4c18-9b2f-6e0fe55cba12" d="M559.72,60.42,560,56.2a.86.86,0,0,0-.88-.92l-4.57.31a2.31,2.31,0,0,0-1.63,1.46c-.54,1-1.47,4.33-.76,4.51l6.57-.19A1.05,1.05,0,0,0,559.72,60.42Z"/><path class="bce0138d-5e28-4c62-bf3d-ea3ddb7aad74" d="M596,55.79l-5.31-.06a.58.58,0,1,1,0-1.15l5.32.06a.58.58,0,1,1,0,1.15Z"/><path class="bce0138d-5e28-4c62-bf3d-ea3ddb7aad74" d="M607.44,55.92l-5.31-.06a.57.57,0,0,1-.57-.58.58.58,0,0,1,.58-.57l5.32.06a.58.58,0,1,1,0,1.15Z"/><path class="bce0138d-5e28-4c62-bf3d-ea3ddb7aad74" d="M581.44,50.72a3,3,0,0,1-2.42,3.4l-3.18.42a3,3,0,0,1-3.22-2.65l-.14-1a3,3,0,0,1,2.41-3.4l3.19-.43a3,3,0,0,1,3.22,2.65Z"/><path class="a2371080-c164-445c-a482-bad12eaa7786" d="M576.83,47.86a7.13,7.13,0,0,1,3.79.26A2.79,2.79,0,0,0,578.08,47l-3.19.43a2.84,2.84,0,0,0-2.3,2.07C573.4,48.64,574.17,48.18,576.83,47.86Z"/><path class="a67ee686-4b61-4230-ad50-aca196bd6b1e" d="M568.5,76.52a.41.41,0,0,1-.59.58.41.41,0,0,1,0-.59A.42.42,0,0,1,568.5,76.52Z"/><path class="a67ee686-4b61-4230-ad50-aca196bd6b1e" d="M569.54,75.49a.43.43,0,0,1,0,.59.41.41,0,1,1-.58-.59A.42.42,0,0,1,569.54,75.49Z"/><path class="a67ee686-4b61-4230-ad50-aca196bd6b1e" d="M569.43,77.47a.41.41,0,0,1-.59.58.41.41,0,0,1,0-.58A.4.4,0,0,1,569.43,77.47Z"/><path class="a67ee686-4b61-4230-ad50-aca196bd6b1e" d="M570.47,76.45a.41.41,0,0,1,0,.58.41.41,0,1,1-.58-.59A.41.41,0,0,1,570.47,76.45Z"/><path class="b96cc5f2-1c6b-4e7d-b446-7638edddbe63" d="M613.5,69.22a10.56,10.56,0,1,0,14.94.17A10.55,10.55,0,0,0,613.5,69.22Z"/><path class="b96cc5f2-1c6b-4e7d-b446-7638edddbe63" d="M628.75,69.09a11,11,0,1,1-15.56-.19A11,11,0,0,1,628.75,69.09Z"/><path class="b5d10ea0-b168-4166-9356-eb4d7fb647dd" d="M627.47,70.34a9.21,9.21,0,1,1-13-.16A9.2,9.2,0,0,1,627.47,70.34Z"/><path class="f4995ea6-05ea-49ef-bd11-92d9cca78d90" d="M616,71.81a6.93,6.93,0,1,0,9.8.12A6.94,6.94,0,0,0,616,71.81Zm8.46.57L622.14,75,622,74.9l1.52-3.16A5.53,5.53,0,0,1,624.5,72.38Zm-1.32-.81-1.57,3.13-.14,0,.62-3.44A4.94,4.94,0,0,1,623.18,71.57Zm-1.49-.43L621,74.59a.57.57,0,0,0-.13,0l-.35-3.49A6.18,6.18,0,0,1,621.69,71.14Zm-1.54,0,.29,3.49a.7.7,0,0,1-.14,0L619,71.39A6,6,0,0,1,620.15,71.13Zm-1.48.4,1.21,3.29-.12.07-2.1-2.8A5.22,5.22,0,0,1,618.67,71.53Zm-1.76,1.17a5.3,5.3,0,0,1,.43-.38l2.06,2.84,0,0-.05.06-2.78-2.14Q616.7,72.91,616.91,72.7Zm-.64.74L619,75.61a.67.67,0,0,0-.06.12l-3.26-1.3A4.89,4.89,0,0,1,616.27,73.44Zm-.73,1.36,3.24,1.35a.61.61,0,0,0,0,.13l-3.49-.37A6.94,6.94,0,0,1,615.54,74.8Zm-.32,1.5,3.47.43v.14l-3.46.59A5.63,5.63,0,0,1,615.22,76.3Zm.07,1.54,3.47-.52a.65.65,0,0,0,0,.13L615.62,79A7.08,7.08,0,0,1,615.29,77.84Zm.5,1.47L619,77.87a.44.44,0,0,0,.08.11l-2.65,2.31A5.37,5.37,0,0,1,615.79,79.31Zm1,1.44c-.07-.06-.11-.11-.16-.16l2.69-2.25.1.1-1.93,2.92A4.5,4.5,0,0,1,616.82,80.75Zm1,.83,2-2.89.13.07-1.08,3.34A5,5,0,0,1,617.85,81.58Zm1.42.65,1.12-3.32.14,0-.13,3.5A5.37,5.37,0,0,1,619.27,82.23Zm1.53.23L621,79l.15,0,.81,3.41A6.23,6.23,0,0,1,620.8,82.46Zm1.54-.19-.76-3.41.14-.06,1.71,3.07A6.2,6.2,0,0,1,622.34,82.27Zm1.44-.6-1.66-3.09.13-.09L624.72,81A5.34,5.34,0,0,1,623.78,81.67Zm1.22-1-2.43-2.53a.4.4,0,0,0,.1-.12l3,1.74A6,6,0,0,1,625,80.7Zm.92-1.26-3-1.79.06-.13,3.39.84A5.49,5.49,0,0,1,625.92,79.44Zm.53-1.47-3.39-.89a.81.81,0,0,0,0-.15l3.5-.11A6.32,6.32,0,0,1,626.45,78Zm.11-1.55-3.5,0,0-.14,3.34-1A5,5,0,0,1,626.56,76.42Zm-.3-1.52-3.37,1-.06-.13,2.93-1.91A5.31,5.31,0,0,1,626.26,74.9Zm-3.68.48-.09-.11,2.3-2.63c.06,0,.11.11.17.15a7.75,7.75,0,0,1,.59.72Z"/><path class="e3e82aac-aa12-4b64-8013-14cb4d80b82e" d="M627.78,76.85a6.9,6.9,0,1,1-6.82-7A6.9,6.9,0,0,1,627.78,76.85Z"/><path class="b96cc5f2-1c6b-4e7d-b446-7638edddbe63" d="M564.69,69.22a10.56,10.56,0,1,0,14.94.17A10.56,10.56,0,0,0,564.69,69.22Z"/><path class="b96cc5f2-1c6b-4e7d-b446-7638edddbe63" d="M579.94,69.09a11,11,0,1,1-15.56-.19A11,11,0,0,1,579.94,69.09Z"/><path class="b5d10ea0-b168-4166-9356-eb4d7fb647dd" d="M578.66,70.34a9.21,9.21,0,1,1-13-.16A9.2,9.2,0,0,1,578.66,70.34Z"/><path class="f4995ea6-05ea-49ef-bd11-92d9cca78d90" d="M567.23,71.81a6.94,6.94,0,1,0,9.8.12A6.93,6.93,0,0,0,567.23,71.81Zm8.46.57L573.33,75l-.12-.08,1.52-3.16A5.53,5.53,0,0,1,575.69,72.38Zm-1.32-.81L572.8,74.7l-.14,0,.62-3.44A4.94,4.94,0,0,1,574.37,71.57Zm-1.49-.43-.66,3.45a.56.56,0,0,0-.13,0l-.35-3.49A6.18,6.18,0,0,1,572.88,71.14Zm-1.54,0,.29,3.49a.58.58,0,0,1-.14,0l-1.26-3.26A6,6,0,0,1,571.34,71.13Zm-1.49.4,1.22,3.29-.12.07-2.1-2.8A5.8,5.8,0,0,1,569.85,71.53ZM568.1,72.7c.13-.13.28-.26.42-.38l2.07,2.84-.05,0,0,.06-2.78-2.14Q567.89,72.91,568.1,72.7Zm-.64.74,2.75,2.17a.67.67,0,0,0-.06.12l-3.27-1.3A5.46,5.46,0,0,1,567.46,73.44Zm-.73,1.36L570,76.15l0,.13-3.49-.37A6.94,6.94,0,0,1,566.73,74.8Zm-.32,1.5,3.47.43v.14l-3.46.59A5.63,5.63,0,0,1,566.41,76.3Zm.07,1.54,3.47-.52a.65.65,0,0,0,0,.13L566.81,79A7.08,7.08,0,0,1,566.48,77.84Zm.5,1.47,3.19-1.44a.44.44,0,0,0,.08.11l-2.66,2.31A5.91,5.91,0,0,1,567,79.31Zm1,1.44-.15-.16,2.69-2.25a.94.94,0,0,1,.1.1l-1.93,2.92A5.74,5.74,0,0,1,568,80.75Zm1,.83,2-2.89.13.07-1.08,3.34A5,5,0,0,1,569,81.58Zm1.42.65,1.12-3.32.14,0-.13,3.5A5.37,5.37,0,0,1,570.46,82.23Zm1.53.23.19-3.49.15,0,.81,3.41A6.23,6.23,0,0,1,572,82.46Zm1.54-.19-.76-3.41.15-.06,1.7,3.07A5.92,5.92,0,0,1,573.53,82.27Zm1.44-.6-1.66-3.09.13-.09L575.91,81A5.74,5.74,0,0,1,575,81.67Zm1.22-1-2.43-2.53a.4.4,0,0,0,.1-.12l3,1.74A6,6,0,0,1,576.19,80.7Zm.92-1.26-3-1.79.06-.13,3.39.84A5.49,5.49,0,0,1,577.11,79.44Zm.53-1.47-3.39-.89a.81.81,0,0,0,0-.15l3.5-.11A6.32,6.32,0,0,1,577.64,78Zm.11-1.55-3.5,0,0-.14,3.34-1A4.53,4.53,0,0,1,577.75,76.42Zm-.3-1.52-3.37,1-.06-.13L577,73.85A5.31,5.31,0,0,1,577.45,74.9Zm-3.68.48-.09-.11L576,72.64a1.14,1.14,0,0,0,.16.15,7.75,7.75,0,0,1,.59.72Z"/><path class="e3e82aac-aa12-4b64-8013-14cb4d80b82e" d="M579,76.85a6.9,6.9,0,1,1-6.82-7A6.9,6.9,0,0,1,579,76.85Z"/></g></g></g></svg>