<svg xmlns="http://www.w3.org/2000/svg" xmlns:xlink="http://www.w3.org/1999/xlink" viewBox="0 0 819.15 127.8"><defs><style>.a2e87bf3-66ea-4b43-881a-b7de84b96b83{fill:url(#bbbb8acf-2ae8-4d3f-b6f6-51d7ee343b19);}.e0a09a6c-a377-4b85-ae2a-cb776a887ed4{opacity:0.8;fill:url(#bb892049-55ae-40c5-996a-7704cfd7b16e);}.fb515e23-ef9e-4d83-a7bd-92e42d59aecb{fill:#e69d45;}.a2709168-2bf7-417a-8b7b-daddfe78b25d{fill:#f2d848;}.a6b4f133-28ca-4b8c-a8d1-8a92c41fa757{fill:#f6f5c2;}.b1660cd8-79dc-4adb-8475-976b1c272f9c{fill:#e8b96e;}.f80cb9bf-4fb6-46eb-af12-b204fe9bb063{fill:#77a052;}.ac99c1f9-887b-4339-9d1e-9931b5ad8059{fill:#ba985f;}.a5c71683-bf6c-4170-ab05-43742f032e1d{fill:#788f4f;}.af2533fa-6631-4619-81a4-b0d484284831{fill:#dea65e;}.eab6a79a-6252-4e07-ab60-19d440f5343b{fill:#50b081;}.e2660add-31f5-4882-81c2-8b9693045994{fill:#bc9e52;}.b70763d2-984f-4753-b359-369bfec68394{fill:#559f7a;}.a2aded05-23e5-4a74-b5a6-2047d3ec85f7{fill:#876664;}.b621679e-5f5e-48fe-9a17-4db125b4885f{fill:#99a955;}.e20dce28-8dd8-4972-b853-9f4067b61d4a{fill:#5b5d4e;}.bc67f231-fcbe-41e7-81d1-e537ec4a36f4{fill:#7d9d58;}.afbd09c2-890b-4e83-8424-821270cc92bd{fill:#2366a7;}.a427dcf3-b90f-488d-8281-72378febb3fb{fill:#fff;}.eb66bd1e-7c3f-4bb1-96f7-bb6803016163{fill:#e2735a;}.af4d0f21-6f03-4c45-99b9-d5ac2bcfc597{fill:#e9f0e2;}.e9eca2d2-8b75-4437-9e8d-99702aea66fe{fill:#332c2b;}.a498bb25-e6f0-4f85-926d-4e2cea3fa8bf{fill:#231915;}.fbf3f66f-a096-4e31-a8d7-5c7a6a692de4{fill:#86878a;}</style><linearGradient id="bbbb8acf-2ae8-4d3f-b6f6-51d7ee343b19" x1="-646.69" y1="116.09" x2="-648.15" y2="183.96" gradientTransform="matrix(1, 0.01, -0.01, 1, 1364.25, -92.92)" gradientUnits="userSpaceOnUse"><stop offset="0" stop-color="#6fa5b8"/><stop offset="0.42" stop-color="#71a6b9"/><stop offset="0.57" stop-color="#78aabc"/><stop offset="0.68" stop-color="#83b2c2"/><stop offset="0.76" stop-color="#94bcca"/><stop offset="0.84" stop-color="#aacad5"/><stop offset="0.9" stop-color="#c6dbe3"/><stop offset="0.96" stop-color="#e5eff2"/><stop offset="1" stop-color="#fff"/></linearGradient><linearGradient id="bb892049-55ae-40c5-996a-7704cfd7b16e" x1="-644.64" y1="103.09" x2="-645.14" y2="126.29" gradientTransform="translate(1363.79 -96.87)" gradientUnits="userSpaceOnUse"><stop offset="0" stop-color="#fff"/><stop offset="0.29" stop-color="#fff" stop-opacity="0.99"/><stop offset="0.43" stop-color="#fefeff" stop-opacity="0.96"/><stop offset="0.54" stop-color="#fcfdfe" stop-opacity="0.91"/><stop offset="0.63" stop-color="#f9fcfd" stop-opacity="0.84"/><stop offset="0.7" stop-color="#f5fafc" stop-opacity="0.75"/><stop offset="0.77" stop-color="#f1f7fb" stop-opacity="0.63"/><stop offset="0.84" stop-color="#ebf4f9" stop-opacity="0.49"/><stop offset="0.9" stop-color="#e5f1f8" stop-opacity="0.34"/><stop offset="0.96" stop-color="#deedf6" stop-opacity="0.16"/><stop offset="1" stop-color="#d8eaf4" stop-opacity="0"/></linearGradient></defs><g id="a7232add-d0f5-4c4f-95bd-32a6fba3265e" data-name="Layer 2"><g id="b5bc07bb-a54a-49e6-b6ac-b6f9a03c1865" data-name="date"><path class="a2e87bf3-66ea-4b43-881a-b7de84b96b83" d="M632.87,72.45l64.2-62.73,12.49-2.13L725,1.08s68.57,70.1,70.76,71.58,23.39,16.27,23.39,16.27L610.75,91.4Z"/><path class="e0a09a6c-a377-4b85-ae2a-cb776a887ed4" d="M697.61,21.52l7.93,5.9,1.59-8.15,8.72,5.91,6.08-6.47S733.5,27,734.89,28c5.34,4,16.45,3.68,21,3.38C739.67,15.09,724.74,0,724.74,0L709.33,6.6,696.86,8.8,681.52,24,686,21.52l-1.05,9.56Z"/><path class="fb515e23-ef9e-4d83-a7bd-92e42d59aecb" d="M564,58.59c-6.24-.53-11.84,5.15-12.49,12.68s3.9,14.06,10.15,14.6,11.85-5.14,12.49-12.66S570.21,59.13,564,58.59Z"/><path class="a2709168-2bf7-417a-8b7b-daddfe78b25d" d="M563.67,62.09c-4.33-.38-8.22,3.87-8.7,9.48s2.63,10.44,7,10.81,8.22-3.87,8.7-9.46S568,62.46,563.67,62.09Z"/><path class="a6b4f133-28ca-4b8c-a8d1-8a92c41fa757" d="M563.67,62.09c-4.33-.38-8.22,3.87-8.7,9.48a12.82,12.82,0,0,0,.13,3.05L570,67.79C568.91,64.62,566.58,62.34,563.67,62.09Z"/><path class="fb515e23-ef9e-4d83-a7bd-92e42d59aecb" d="M518,58.59c-6.24-.53-11.84,5.15-12.49,12.68s3.9,14.06,10.15,14.6,11.85-5.14,12.49-12.66S524.21,59.13,518,58.59Z"/><path class="a2709168-2bf7-417a-8b7b-daddfe78b25d" d="M517.67,62.09c-4.33-.38-8.22,3.87-8.7,9.48s2.63,10.44,7,10.81,8.22-3.87,8.7-9.46S522,62.46,517.67,62.09Z"/><path class="a6b4f133-28ca-4b8c-a8d1-8a92c41fa757" d="M517.67,62.09c-4.33-.38-8.22,3.87-8.7,9.48a12.82,12.82,0,0,0,.13,3.05L524,67.79C522.91,64.62,520.58,62.34,517.67,62.09Z"/><path class="fb515e23-ef9e-4d83-a7bd-92e42d59aecb" d="M469,58.59c-6.24-.53-11.84,5.15-12.49,12.68s3.9,14.06,10.15,14.6,11.85-5.14,12.49-12.66S475.21,59.13,469,58.59Z"/><path class="a2709168-2bf7-417a-8b7b-daddfe78b25d" d="M468.67,62.09c-4.33-.38-8.22,3.87-8.7,9.48s2.63,10.44,7,10.81,8.22-3.87,8.7-9.46S473,62.46,468.67,62.09Z"/><path class="a6b4f133-28ca-4b8c-a8d1-8a92c41fa757" d="M468.67,62.09c-4.33-.38-8.22,3.87-8.7,9.48a12.82,12.82,0,0,0,.13,3.05L475,67.79C473.91,64.62,471.58,62.34,468.67,62.09Z"/><polygon class="b1660cd8-79dc-4adb-8475-976b1c272f9c" points="28.38 93.24 30.89 82.99 31.82 87.47 33.84 85.95 34.7 87.11 32.13 89.16 32.94 93.34 28.38 93.24"/><path class="f80cb9bf-4fb6-46eb-af12-b204fe9bb063" d="M36.45,79.35c-.08,3.84-2.61,6.91-5.63,6.84S25.4,83,25.49,79.1s2.61-6.91,5.63-6.84S36.54,75.5,36.45,79.35Z"/><polygon class="ac99c1f9-887b-4339-9d1e-9931b5ad8059" points="31.75 87.14 29.84 87.1 30.89 82.89 31.75 87.14"/><path class="a5c71683-bf6c-4170-ab05-43742f032e1d" d="M30.82,86.19c-2.9-.06-5.19-3-5.31-6.62,3.86.18,3.88,3,7.87,3.1a5.61,5.61,0,0,0,2.53-.5C35,84.58,33.05,86.24,30.82,86.19Z"/><polygon class="af2533fa-6631-4619-81a4-b0d484284831" points="7.45 92.78 2.9 92.67 5.4 82.64 5.4 82.64 7.45 92.78"/><path class="eab6a79a-6252-4e07-ab60-19d440f5343b" d="M11,78.79c-.08,3.84-2.6,6.91-5.63,6.84S-.08,82.39,0,78.54s2.61-6.91,5.64-6.84S11.05,74.94,11,78.79Z"/><polygon class="e2660add-31f5-4882-81c2-8b9693045994" points="6.26 86.58 4.36 86.53 5.4 82.33 6.26 86.58"/><path class="b70763d2-984f-4753-b359-369bfec68394" d="M5.33,85.63A5.44,5.44,0,0,1,.64,81.94H.87C4.94,82,5,79.11,9.07,79.2a6.25,6.25,0,0,1,1.82.29C10.53,83,8.17,85.69,5.33,85.63Z"/><polygon class="a2aded05-23e5-4a74-b5a6-2047d3ec85f7" points="19.89 93.05 15.35 92.95 17.84 82.91 17.84 82.91 19.89 93.05"/><path class="b621679e-5f5e-48fe-9a17-4db125b4885f" d="M23.41,79.06c-.08,3.85-2.61,6.91-5.63,6.84s-5.42-3.24-5.33-7.08,2.61-6.91,5.64-6.85S23.5,75.21,23.41,79.06Z"/><polygon class="e20dce28-8dd8-4972-b853-9f4067b61d4a" points="18.71 86.85 16.8 86.81 17.85 82.61 18.71 86.85"/><path class="bc67f231-fcbe-41e7-81d1-e537ec4a36f4" d="M17.78,85.9c-2.61-.05-4.74-2.42-5.22-5.54,1.21.86,2.18,1.9,4.57,2,3.27.07,3.95-1.81,6.2-2.5C23,83.29,20.6,86,17.78,85.9Z"/><polygon class="b1660cd8-79dc-4adb-8475-976b1c272f9c" points="70.38 93.24 72.89 82.99 73.82 87.47 75.84 85.95 76.7 87.11 74.13 89.16 74.94 93.34 70.38 93.24"/><path class="f80cb9bf-4fb6-46eb-af12-b204fe9bb063" d="M78.45,79.35c-.08,3.84-2.61,6.91-5.63,6.84S67.4,83,67.49,79.1s2.61-6.91,5.63-6.84S78.54,75.5,78.45,79.35Z"/><polygon class="ac99c1f9-887b-4339-9d1e-9931b5ad8059" points="73.75 87.14 71.84 87.1 72.89 82.89 73.75 87.14"/><path class="a5c71683-bf6c-4170-ab05-43742f032e1d" d="M72.82,86.19c-2.9-.06-5.19-3-5.31-6.62,3.86.18,3.88,3,7.87,3.1a5.61,5.61,0,0,0,2.53-.5C77,84.58,75.05,86.24,72.82,86.19Z"/><polygon class="af2533fa-6631-4619-81a4-b0d484284831" points="49.45 92.78 44.9 92.67 47.4 82.64 47.4 82.64 49.45 92.78"/><path class="eab6a79a-6252-4e07-ab60-19d440f5343b" d="M53,78.79c-.08,3.84-2.6,6.91-5.63,6.84S41.92,82.39,42,78.54s2.61-6.91,5.64-6.84S53.05,74.94,53,78.79Z"/><polygon class="e2660add-31f5-4882-81c2-8b9693045994" points="48.26 86.58 46.36 86.53 47.4 82.33 48.26 86.58"/><path class="b70763d2-984f-4753-b359-369bfec68394" d="M47.33,85.63a5.44,5.44,0,0,1-4.69-3.69h.23c4.07.09,4.13-2.84,8.2-2.75a6.25,6.25,0,0,1,1.82.29C52.53,83,50.17,85.69,47.33,85.63Z"/><polygon class="a2aded05-23e5-4a74-b5a6-2047d3ec85f7" points="61.89 93.05 57.35 92.95 59.84 82.91 59.84 82.91 61.89 93.05"/><path class="b621679e-5f5e-48fe-9a17-4db125b4885f" d="M65.41,79.06c-.08,3.85-2.61,6.91-5.63,6.84s-5.42-3.24-5.33-7.08,2.61-6.91,5.64-6.85S65.5,75.21,65.41,79.06Z"/><polygon class="e20dce28-8dd8-4972-b853-9f4067b61d4a" points="60.71 86.85 58.8 86.81 59.85 82.61 60.71 86.85"/><path class="bc67f231-fcbe-41e7-81d1-e537ec4a36f4" d="M59.78,85.9c-2.61-.05-4.74-2.42-5.22-5.54,1.21.86,2.18,1.9,4.57,2,3.27.07,3.95-1.81,6.2-2.5C65,83.29,62.6,86,59.78,85.9Z"/><path class="afbd09c2-890b-4e83-8424-821270cc92bd" d="M138.15,106.71c1.1-2.17,2.3-7.08,2.69-8.32.58-1.83-1.45-5.72-.26-5.83a26.93,26.93,0,0,0,5.51-.66c2.44-.63,8.15-2.94,19.78-5.91l1.72-.36c-.09-.51-.28-1.06.16-1.44.95-.63,3,.14,4.13.65,11-1.79,23-2.08,31-.43,9.52,2,21.65,9,28.12,11.29,17.72,3.92,22.43,5.47,23.9,9.38,1.23,3.23-.91,8.06-3.07,11-1.28,1.18-9.95,1-11.18,1s-11.7-.14-16.71,0-34,.63-44.26.73c-8.69.08-24.28-.67-29.56-1.15-4.28-.41-10.58-1.25-11.81-2.62C137.74,113.38,137.06,109.16,138.15,106.71Z"/><path class="a427dcf3-b90f-488d-8281-72378febb3fb" d="M240.16,99.7c.89.57,6,3.43,7.3,3.61s5.12.62,4.75.17c.36-.22-.09-1.2-3.3-2.63a78.15,78.15,0,0,0-11-3.06C237,98.16,240,99.6,240.16,99.7Z"/><path class="a427dcf3-b90f-488d-8281-72378febb3fb" d="M251.93,105.22c.2.56-.55,7.51-1.51,8.65-.66.77-.71,0-.82-.2s.75-7.36.9-7.88a1,1,0,0,1,1.37-.52"/><path class="eb66bd1e-7c3f-4bb1-96f7-bb6803016163" d="M141.43,93.34c.9.35,8.79,1.76,9.6,1.86.58.07-3.89,2.27-4.35,2.5-3.2,1.6-4.86,2.37-4.86,2.37-.43.2-.63,0-.42-.43,0,0,1.06-2.28.48-3.28S140.73,93.07,141.43,93.34Z"/><path class="a427dcf3-b90f-488d-8281-72378febb3fb" d="M163.4,92.83l.7-1.68c.2-.51.39-1,.55-1.34l.17-.41a2.3,2.3,0,0,1,1.25-1h0a71,71,0,0,1,8.85-2.15c3.59-.49,7.22-.82,10.75-1h0a.76.76,0,0,1,.89.69h0l.46,8.67h0l0,.33a.72.72,0,0,1-.81.79l-.36,0h0c-6.54-.57-17.76-1.63-21.57-2h0l-.38,0A.59.59,0,0,1,163.4,92.83Z"/><path class="af4d0f21-6f03-4c45-99b9-d5ac2bcfc597" d="M185.44,86.44l.44,8.12C180,94,170,93.11,164.75,92.62l.42-1c.22-.55.39-1,.54-1.31l0,0,.13-.34a1.44,1.44,0,0,1,.49-.39h.06l.21-.07a72.63,72.63,0,0,1,8.49-2c3.45-.47,6.93-.79,10.32-1m.24-1.17c-3.53.15-7.16.48-10.75,1a71,71,0,0,0-8.85,2.15h0a2.3,2.3,0,0,0-1.25,1l-.17.41c-.16.38-.35.83-.55,1.34l-.7,1.68a.59.59,0,0,0,.52.88l.38,0h0c3.81.36,15,1.42,21.57,2h0l.36,0h.08a.73.73,0,0,0,.73-.8l0-.33L186.59,86h0a.75.75,0,0,0-.77-.7h-.12Z"/><path class="a427dcf3-b90f-488d-8281-72378febb3fb" d="M191.1,85.18h.27a61.89,61.89,0,0,1,11.12,1,48.5,48.5,0,0,1,9.08,2.88l.1,0a1.89,1.89,0,0,1,1.08,1.12l1.56,6.94a.67.67,0,0,1-.75.79l-21.35-1.84a1.15,1.15,0,0,1-1-1L190.33,86A.74.74,0,0,1,191.1,85.18Z"/><path class="af4d0f21-6f03-4c45-99b9-d5ac2bcfc597" d="M191.54,86.34a60.39,60.39,0,0,1,10.72,1,46,46,0,0,1,8.87,2.83,1.52,1.52,0,0,1,.2.06.89.89,0,0,1,.3.31L213,96.75,192.41,95l-.87-8.63m-.2-1.16a1.88,1.88,0,0,0-.24,0h0a.75.75,0,0,0-.74.85l.93,9.15a1.15,1.15,0,0,0,1,1L213.56,98h.08a.66.66,0,0,0,.67-.79l-1.56-6.94a1.89,1.89,0,0,0-1.08-1.12l-.1,0a48.5,48.5,0,0,0-9.08-2.88,61.89,61.89,0,0,0-11.12-1Z"/><path class="e9eca2d2-8b75-4437-9e8d-99702aea66fe" d="M212.32,92.39c-1,.49-.77,3.7.07,6.16,1,1.21,4.42.29,5.88-1s1.18-3-1.1-4.08C215.74,92.77,213.06,92.05,212.32,92.39Z"/><path class="e9eca2d2-8b75-4437-9e8d-99702aea66fe" d="M191.78,100.61c0,.28.37.51.84.52l5.42.16c.47,0,.86-.2.87-.48s-.36-.51-.83-.52l-5.44-.15C192.17,100.13,191.79,100.34,191.78,100.61Z"/><path class="e9eca2d2-8b75-4437-9e8d-99702aea66fe" d="M164.56,98.68c0,.27.37.51.83.52l5.43.15c.47,0,.86-.2.87-.47s-.37-.51-.84-.53l-5.42-.15C165,98.19,164.57,98.4,164.56,98.68Z"/><path class="a498bb25-e6f0-4f85-926d-4e2cea3fa8bf" d="M217.09,107.85a11.36,11.36,0,1,0,16.07-.16A11.35,11.35,0,0,0,217.09,107.85Z"/><path class="fbf3f66f-a096-4e31-a8d7-5c7a6a692de4" d="M219.21,121.91a8.55,8.55,0,1,0-.12-12.09A8.56,8.56,0,0,0,219.21,121.91Zm-.78-8,4.13,1.31a1.36,1.36,0,0,0,0,.17l-4.32-.07A7.68,7.68,0,0,1,218.43,113.94Zm.75-1.75,3.62,2.36-.08.16-4.14-1.23A7.18,7.18,0,0,1,219.18,112.19Zm1.2-1.48,2.85,3.24-.12.13-3.65-2.3a6.17,6.17,0,0,1,.73-.89A1.57,1.57,0,0,1,220.38,110.71Zm1.55-1.12,1.87,3.89-.15.1-2.9-3.21A7.3,7.3,0,0,1,221.93,109.59Zm1.69,5.81a.5.5,0,0,1,.71,0,.5.5,0,1,1-.7.72A.49.49,0,0,1,223.62,115.4Zm.11-6.45.74,4.25-.17,0-1.92-3.87A6.22,6.22,0,0,1,223.73,109Zm1.9-.15-.44,4.3H225l-.81-4.25A7.37,7.37,0,0,1,225.63,108.8Zm-.86,5.43a.5.5,0,0,1,.72,0,.51.51,0,0,1-.71.73A.51.51,0,0,1,224.77,114.23Zm2.73-5.06-1.58,4-.16,0,.36-4.3A7.27,7.27,0,0,1,227.5,109.17Zm-1.45,6.32a.51.51,0,1,1,.73.71.51.51,0,1,1-.73-.71ZM229.2,110l-2.62,3.45-.14-.08,1.52-4.05A7.16,7.16,0,0,1,229.2,110Zm1.39,1.28-3.44,2.62a.15.15,0,0,0-.05-.06l-.06-.06,2.55-3.48a5.62,5.62,0,0,1,.53.46C230.28,111,230.45,111.14,230.59,111.31Zm1,1.61-4,1.59-.08-.13,3.39-2.67A6.78,6.78,0,0,1,231.61,112.92Zm.53,1.83-4.3.45a1.24,1.24,0,0,1,0-.16l4-1.66A7.25,7.25,0,0,1,232.14,114.75Zm0,1.91-4.26-.73c0-.06,0-.12,0-.18l4.28-.51A6.15,6.15,0,0,1,232.16,116.66Zm-.48,1.84-3.9-1.86s0-.1,0-.16l4.27.66A7.11,7.11,0,0,1,231.68,118.5Zm-1,1.64-3.27-2.84a1.13,1.13,0,0,1,.1-.13l3.92,1.78A6.43,6.43,0,0,1,230.72,120.14Zm-1.38,1.33L227,117.86l.13-.13,3.31,2.79-.19.2A6.77,6.77,0,0,1,229.34,121.47Zm-1.69.91-1.31-4.12.16-.08,2.43,3.57A7.6,7.6,0,0,1,227.65,122.38Zm-2-3.91.18,0,1.37,4.09a6.79,6.79,0,0,1-1.4.27Zm-.71-1.09a.51.51,0,1,1,.71-.72.51.51,0,0,1,0,.72A.5.5,0,0,1,224.92,117.38Zm-1.06,5.31,1-4.2h.19l.21,4.32A7.66,7.66,0,0,1,223.86,122.69Zm-1.82-.62,2.12-3.78.17.08-1,4.22A7.88,7.88,0,0,1,222,122.07ZM220.47,121l3.05-3.06.15.11-2,3.8A5.89,5.89,0,0,1,220.47,121Zm-1.23-1.48,3.76-2.12a.83.83,0,0,1,.11.15l-3,3.11A6.62,6.62,0,0,1,219.24,119.5Zm-.78-1.76,4.2-1a.77.77,0,0,0,.07.17L219,119.08A7.32,7.32,0,0,1,218.46,117.74Zm-.12-.47a7.63,7.63,0,0,1-.16-1.42l4.32.14a1.1,1.1,0,0,0,0,.18Z"/><path class="a427dcf3-b90f-488d-8281-72378febb3fb" d="M216.58,115.89a8.63,8.63,0,1,0,8.54-8.71A8.63,8.63,0,0,0,216.58,115.89Zm.23,0a8.39,8.39,0,1,1,8.47,8.32A8.4,8.4,0,0,1,216.81,115.88Z"/><path class="a498bb25-e6f0-4f85-926d-4e2cea3fa8bf" d="M149.43,108.49a11.36,11.36,0,1,0,16.07-.16A11.37,11.37,0,0,0,149.43,108.49Z"/><path class="fbf3f66f-a096-4e31-a8d7-5c7a6a692de4" d="M151.55,122.55a8.55,8.55,0,1,0-.12-12.09A8.56,8.56,0,0,0,151.55,122.55Zm-.78-8,4.11,1.31a1.41,1.41,0,0,1,0,.18l-4.32-.08A7.68,7.68,0,0,1,150.77,114.58Zm.75-1.75,3.62,2.36s0,.11-.08.16l-4.14-1.24A8.25,8.25,0,0,1,151.52,112.83Zm1.21-1.49,2.84,3.25a.63.63,0,0,0-.11.13l-3.67-2.31a7.69,7.69,0,0,1,.75-.89A1.62,1.62,0,0,1,152.73,111.34Zm1.54-1.11,1.87,3.89-.15.1L153.1,111A7.44,7.44,0,0,1,154.27,110.23ZM156,116a.52.52,0,0,1,.73,0,.53.53,0,0,1,0,.72A.51.51,0,0,1,156,116Zm.12-6.45.74,4.25-.16,0L154.72,110A6.79,6.79,0,0,1,156.07,109.59Zm1.9-.15-.44,4.29h-.16l-.81-4.24A5.56,5.56,0,0,1,158,109.44Zm-.87,5.43a.51.51,0,0,1,.73,0,.52.52,0,0,1,0,.72.51.51,0,0,1-.73,0A.5.5,0,0,1,157.1,114.87Zm2.74-5.06-1.58,4-.16,0,.36-4.3A6,6,0,0,1,159.84,109.81Zm-1.44,6.32a.52.52,0,0,1,.72,0,.51.51,0,0,1,0,.72.52.52,0,0,1-.72,0A.51.51,0,0,1,158.4,116.13Zm3.14-5.46-2.61,3.45-.15-.08L160.3,110A6.87,6.87,0,0,1,161.54,110.67Zm1.4,1.28-3.45,2.62-.06-.06-.06-.06,2.56-3.49c.18.15.36.3.53.47S162.78,111.77,162.94,112Zm1,1.61-4,1.6s0-.1-.08-.14l3.4-2.68A7.11,7.11,0,0,1,163.94,113.56Zm.54,1.83-4.3.45c0-.06,0-.11,0-.17l4-1.65A6.76,6.76,0,0,1,164.48,115.39Zm0,1.91-4.26-.74s0-.11,0-.17l4.29-.51A7.52,7.52,0,0,1,164.5,117.3Zm-.48,1.84-3.91-1.86a.75.75,0,0,0,0-.16l4.26.66A6.61,6.61,0,0,1,164,119.14Zm-1,1.64L159.79,118l.09-.14,3.94,1.77A7.39,7.39,0,0,1,163.06,120.78Zm-1.39,1.34-2.37-3.62.13-.12,3.3,2.78-.18.2A8,8,0,0,1,161.67,122.12ZM160,123l-1.31-4.13.15-.08,2.43,3.56A7.6,7.6,0,0,1,160,123Zm-2-3.92.17,0,1.38,4.09a7.52,7.52,0,0,1-1.4.27Zm-.72-1.08a.52.52,0,0,1,0-.73.51.51,0,0,1,.72.72A.53.53,0,0,1,157.25,118Zm-1.05,5.3,1-4.2h.18l.22,4.32A6.86,6.86,0,0,1,156.2,123.33Zm-1.81-.62,2.11-3.78.17.07-.95,4.22A8.28,8.28,0,0,1,154.39,122.71Zm-1.59-1.09,3.06-3.07a.57.57,0,0,0,.15.12l-2.06,3.8A7.57,7.57,0,0,1,152.8,121.62Zm-1.22-1.48,3.76-2.12a.81.81,0,0,0,.12.14l-3,3.11A6.68,6.68,0,0,1,151.58,120.14Zm-.78-1.76,4.19-1a1.3,1.3,0,0,0,.08.17l-3.74,2.18A7,7,0,0,1,150.8,118.38Zm-.12-.47a7.64,7.64,0,0,1-.16-1.43l4.32.14c0,.07,0,.13,0,.19Z"/><path class="a427dcf3-b90f-488d-8281-72378febb3fb" d="M148.92,116.52a8.62,8.62,0,1,0,8.53-8.7A8.64,8.64,0,0,0,148.92,116.52Zm.22,0a8.4,8.4,0,1,1,8.48,8.31A8.43,8.43,0,0,1,149.14,116.52Z"/></g></g></svg>