<svg xmlns="http://www.w3.org/2000/svg" viewBox="0 0 556.15 266.35"><defs><style>.a103be63-8d55-4282-a45f-79ac29fb7048{fill:#231f20;}.be36a83e-2501-4b4d-bf17-c47701ca9c17{fill:#fff;}.a744ebb3-7bc6-42d2-9d7b-fb594e1973c2{fill:#ffe443;}.bd49aff3-a76b-4086-b756-cf1259ea697b{fill:#ffd337;}.a0519e8d-70b0-48e8-b2dc-7fdda380e40a{fill:none;}</style></defs><g id="b77d0c90-1061-44cf-86cd-2a8c85d6c8b7" data-name="Layer 2"><g id="a6da3b6e-96ef-49ca-88b0-5fa3914c86ba" data-name="date"><path class="a103be63-8d55-4282-a45f-79ac29fb7048" d="M182.15,0c-30.86,0-56,29.57-56,65.92s25.1,65.86,56,65.86,56-29.55,56-65.86S213,0,182.15,0Z"/><path class="a103be63-8d55-4282-a45f-79ac29fb7048" d="M41,27.65H0V2.39H112.62V27.65H71.5V129.39H41Z"/><path class="a103be63-8d55-4282-a45f-79ac29fb7048" d="M261.3,2.39h32.94l20.15,54.79c2.56,7.34,4.6,15.36,7,23.22h.86c2.56-7.86,4.6-15.88,7-23.22L348.69,2.39h33.12v127H354V85.86c0-12.64,2.39-31.58,3.93-44h-.69l-10.58,30.4-17.06,46.42H312.85L295.61,72.21l-10.25-30.4h-.68c1.54,12.47,3.92,31.41,3.92,44.05v43.53H261.3Z"/><path class="a103be63-8d55-4282-a45f-79ac29fb7048" d="M413.2,2.39h80.57V27.65h-50V51.21h42.5v25.6h-42.5v27h51.89v25.61H413.2Z"/><path class="a103be63-8d55-4282-a45f-79ac29fb7048" d="M525.59,2.39h30.56v127H525.59Z"/><path class="be36a83e-2501-4b4d-bf17-c47701ca9c17" d="M182.15,32.11c-15.46,0-28,15.16-28,33.8s12.57,33.76,28,33.76,28.06-15.14,28.06-33.76S197.63,32.11,182.15,32.11Z"/><path class="a744ebb3-7bc6-42d2-9d7b-fb594e1973c2" d="M182.15,37.66c-12,0-21.76,12.65-21.76,28.25s9.73,28.21,21.76,28.21S204,81.49,204,65.91,194.18,37.66,182.15,37.66Z"/><path class="bd49aff3-a76b-4086-b756-cf1259ea697b" d="M182.15,37.66c-12,0-21.76,12.65-21.76,28.25a34.14,34.14,0,0,0,3.76,15.87l35.59-32.5C195.77,42.24,189.38,37.66,182.15,37.66Z"/><path class="a0519e8d-70b0-48e8-b2dc-7fdda380e40a" d="M100.75,198.56c-1.68-19.88-12.16-31.88-27.34-31.88-16.71,0-27.59,14.3-27.59,37.59,0,21,8.58,35.22,22.19,38.15a29.51,29.51,0,0,1-1.13-8C66.88,206.42,84.66,199.28,100.75,198.56Z"/><path class="a0519e8d-70b0-48e8-b2dc-7fdda380e40a" d="M100.87,208.71C84.42,209.5,77,217.52,77,234.45a19.13,19.13,0,0,0,1.75,8C91.35,239.7,99.73,227.27,100.87,208.71Z"/><path d="M45.82,204.27c0-23.29,10.88-37.59,27.59-37.59,15.18,0,25.66,12,27.34,31.88,1-.05,1.94-.07,2.91-.07v10.14c-1,0-1.88,0-2.79.08-1.14,18.56-9.52,31-22.09,33.71a21.82,21.82,0,0,0,6.82,8.32c16.62-5.5,27.43-22.28,27.43-46.47,0-29.74-16.32-47.84-39.62-47.84S33.8,174.53,33.8,204.27c0,27.22,13.67,45.2,33.92,48l5.08-.05A30,30,0,0,1,68,242.42C54.4,239.49,45.82,225.29,45.82,204.27Z"/><path d="M184.91,244.5c17.39,0,30.6-9.27,30.6-36.61V158.05H205.2v50.18c0,20.51-8.92,26.88-20.29,26.88-11,0-19.69-6.37-19.69-26.88V158.05H154.43v49.84C154.43,235.23,167.65,244.5,184.91,244.5Z"/><polygon points="310.29 233.84 270.77 233.84 270.77 202.91 302.99 202.91 302.99 193.74 270.77 193.74 270.77 167.09 309.02 167.09 309.02 158.05 259.99 158.05 259.99 243 310.29 243 310.29 233.84"/><path d="M379.77,235.11c-8.8,0-17.38-4.16-23.52-10.54l-6.38,7.3a40.58,40.58,0,0,0,29.79,12.63c17.72,0,28.84-10.66,28.84-24.1,0-12.63-7.64-18.42-17.49-22.71l-12.17-5.22c-6.6-2.78-14-5.92-14-14.14,0-7.65,6.26-12.52,15.88-12.52,7.88,0,14.14,3.13,19.35,8l5.68-6.84a34.87,34.87,0,0,0-25-10.54c-15.41,0-26.77,9.5-26.77,22.59,0,12.41,9.39,18.44,17.27,21.79l12.28,5.33c8,3.59,14.14,6.38,14.14,15.07C397.62,229.55,390.89,235.11,379.77,235.11Z"/><polygon points="470.83 243 481.61 243 481.61 167.09 507.34 167.09 507.34 158.05 445.11 158.05 445.11 167.09 470.83 167.09 470.83 243"/><path d="M100.87,208.71c.09-1.44.14-2.92.14-4.44,0-2-.11-3.87-.26-5.71-16.09.72-33.87,7.86-33.87,35.89a29.51,29.51,0,0,0,1.13,8,25,25,0,0,0,5.4.6,24.75,24.75,0,0,0,5.37-.6,19.13,19.13,0,0,1-1.75-8C77,217.52,84.42,209.5,100.87,208.71Z"/><path d="M100.87,208.71c.91,0,1.82-.08,2.79-.08V198.49c-1,0-1.94,0-2.91.07.15,1.84.26,3.73.26,5.71C101,205.79,101,207.27,100.87,208.71Z"/><path d="M85.6,250.74a21.82,21.82,0,0,1-6.82-8.32,24.75,24.75,0,0,1-5.37.6,25,25,0,0,1-5.4-.6,30,30,0,0,0,4.79,9.78l7.45-.08A37.11,37.11,0,0,0,85.6,250.74Z"/><path d="M521.19,264.58,509.5,258a16.21,16.21,0,0,0-6.71-1.77h-400a28.72,28.72,0,0,1-17.24-5.46,37.11,37.11,0,0,1-5.35,1.38l-7.45.08c6.38,8.58,17.34,14.15,30,14.15H520.73C522.7,266.35,522.91,265.56,521.19,264.58Z"/></g></g></svg>